<svg width="29" height="38" viewBox="0 0 29 38" fill="none" xmlns="http://www.w3.org/2000/svg">
<g clip-path="url(#clip0_43_36)">
<path d="M1.91025 9.20749C1.91025 9.20749 2.55907 11.7098 2.65162 12.544C2.74439 13.378 0.983459 15.2316 0.983459 16.1584C0.983459 17.0853 1.35365 18.7535 3.39287 19.5877C5.4321 20.4219 5.70985 22.5533 5.70985 23.8512C5.70985 25.1486 4.96849 27.6507 4.96849 27.6507C4.96849 27.6507 4.50531 33.8601 7.00738 34.9722C9.50946 36.0842 8.95362 36.0842 9.50946 36.0842C10.0654 36.0842 14.1434 37.7529 16.5529 37.104C18.9627 36.4553 19.611 35.7139 19.611 35.7139C19.611 35.7139 22.0208 35.8991 22.7622 33.7672C23.5039 31.6358 23.9671 27.1874 23.6889 25.1484C23.4108 23.1091 23.0403 20.422 24.7082 19.4951C26.3769 18.5682 28.1375 17.4564 27.8594 16.5294C27.5813 15.6025 26.0989 14.3049 26.0989 14.3049C26.0989 14.3049 25.7281 11.9882 26.0059 11.432C26.2838 10.876 27.9522 9.48546 27.0253 8.46623C26.099 7.44689 24.4303 7.44689 24.4303 7.44689L22.2989 7.63198C22.2989 7.63198 18.6845 4.38844 13.9579 4.57375C9.23148 4.75906 6.26558 7.63198 6.26558 7.63198C6.26558 7.63198 4.69018 7.07593 3.29989 7.63198C1.90959 8.18826 1.63239 7.63187 1.91025 9.20749Z" fill="#FBA919"/>
<path d="M10.3787 23.0063C10.3787 23.0063 8.54336 25.8126 7.19712 27.8041C6.98884 28.1122 8.54336 28.1335 8.54336 28.1335L10.3787 23.0062V23.0063ZM11.2525 17.1882C11.2525 17.1882 10.6992 18.5684 10.3962 19.3001C10.0673 20.0955 8.81293 20.4912 8.81293 20.4912C8.81293 20.4912 9.46308 19.8093 9.46308 18.0817C9.46308 17.357 10.3988 17.0688 10.3988 17.0688L11.2525 17.1882Z" fill="#E78724"/>
<path d="M10.6937 17.9685C10.6937 17.9685 9.56012 19.3178 7.45563 18.5621C5.35058 17.8067 5.13478 15.1079 5.13478 14.3522C5.13478 13.5966 9.12865 15.1079 9.66857 15.4318C10.2084 15.7557 11.2334 17.0508 10.6937 17.9685ZM2.74359 3.5509C2.74359 3.5509 4.68652 3.17276 5.98162 4.1984C7.27738 5.22381 7.65475 6.03354 7.65475 6.03354L5.47151 7.76409C5.47151 7.76409 4.41661 7.27508 4.09281 5.87164C3.769 4.46831 3.98491 3.82081 2.74359 3.5509Z" fill="#E78724"/>
<path d="M10.1269 14.0711C9.29042 12.8837 7.91182 12.3658 6.81109 12.28C4.93432 12.1332 4.04331 12.7967 4.04331 12.7967C4.04331 12.7967 7.11701 12.9268 8.00294 14.0904C9.65221 16.256 12.0583 16.432 12.4431 15.9563C11.9981 15.9785 11.5088 15.7581 10.9849 15.2628C10.6576 14.9529 10.3924 14.4481 10.1269 14.0711ZM4.93807 18.2698C4.93807 18.2698 1.52776 17.0974 2.17592 15.9103C2.82342 14.7227 2.30801 14.0757 2.30801 14.0757C2.30801 14.0757 0.403732 15.4972 0.888884 17.0085C1.18718 17.9359 1.68746 18.6075 4.4347 19.895C5.75244 22.3426 4.70682 26.7482 4.76944 26.7688C4.8738 26.8035 6.6196 25.906 6.50043 21.7842C6.46399 20.5186 6.36283 18.7907 4.93807 18.2699V18.2698ZM9.40704 5.66277C7.97709 6.38923 6.01804 7.40094 6.01804 7.40094L6.78912 7.7867C6.71546 7.90587 6.68 7.97699 6.68 7.97699L7.4714 8.33679C7.4714 8.33679 9.40328 9.73626 10.5868 10.6361C10.1922 9.42063 9.03376 7.51149 9.03376 7.51149C9.03376 7.51149 8.70554 6.6344 9.40704 5.66277ZM14.1576 35.2759C9.76221 35.2759 8.27351 33.0446 8.27351 33.0446L8.96043 34.7173C9.21996 35.4409 11.9897 37.6927 14.151 37.6927" fill="#E78724"/>
<path d="M8.75518 31.537C8.75518 31.537 9.1596 34.0084 10.7788 34.0084C12.1548 34.0084 12.5602 31.9208 12.5602 31.4893L8.75518 31.537ZM6.06061 27.8097C6.20451 27.4137 6.70822 25.8126 6.87001 24.3555C7.06394 22.6102 6.99326 20.0578 6.99326 20.0578C6.99326 20.0578 6.56123 21.7309 6.18342 22.0013C5.80584 22.2709 5.104 24.1059 5.104 24.1059C5.104 24.1059 4.72808 26.8376 4.54917 27.7558C5.04437 27.8549 5.46116 27.5632 6.06061 27.8097ZM2.15046 16.9815C2.15046 16.9815 3.06776 16.6574 3.33789 14.6607C3.60769 12.6637 3.01386 10.9365 3.01386 10.9365C3.01386 10.9365 3.06776 13.6891 2.74407 14.229C2.42004 14.7685 2.15046 14.9305 1.77244 15.6323C1.39441 16.3343 1.93423 16.7655 2.15046 16.9815Z" fill="#E78724"/>
<path d="M3.24577 4.02321L3.05847 3.9046C2.50628 3.92327 3.24577 4.02321 3.24577 4.02321Z" fill="#FDC168"/>
<path d="M10.1536 5.07151C10.1536 5.07151 9.29043 4.92772 8.8584 4.28011C8.42636 3.6324 7.20327 2.33686 5.25327 2.3225C3.30339 2.30792 1.37427 2.84078 1.37427 2.84078L3.05822 3.90485C3.23635 3.89899 3.54779 3.90142 4.06276 3.91865C6.1762 3.98889 6.50155 6.07925 6.50155 6.07925L13.9497 5.05362" fill="#FBA919"/>
<path d="M10.8735 16.6174C10.8735 16.6174 9.86591 17.625 8.31846 17.3009C6.77112 16.9772 5.83538 16.2935 5.76349 15.106C5.69159 13.9186 6.08762 13.4509 6.08762 13.4509C6.08762 13.4509 7.81453 13.9909 8.64259 14.7106C9.47021 15.4301 10.0819 16.5815 10.8735 16.6174Z" fill="white"/>
<path d="M9.65411 16.2575C9.65411 16.2575 8.78022 16.6566 7.80351 16.3315C6.52497 15.905 6.43982 14.5753 6.43982 14.5753C6.43982 14.5753 5.65539 16.8772 7.85453 17.3202C9.61833 17.6755 10.6615 16.6534 10.6615 16.6534L9.65411 16.2574V16.2575Z" fill="#C9C9C9"/>
<path d="M10.2751 4.58316C10.1811 2.6092 11.7994 1.03701 12.3602 0.969973C12.3911 1.30449 12.3288 2.60931 12.8894 3.01053C13.0526 1.9448 13.6045 0.769749 15.7837 0C15.317 1.23789 15.7213 2.27479 15.914 2.75542C17.4021 1.40477 18.4047 1.62785 18.4047 1.62785C18.4047 1.62785 17.3707 3.41208 17.7752 4.58283C14.7879 4.34859 10.2897 4.90011 10.2751 4.58316ZM3.94196 7.59015C3.22908 6.99876 3.7604 6.44999 3.70407 5.77809C3.67348 5.4206 3.64521 5.08333 3.52737 4.89724C2.87137 3.86156 1.32403 3.54725 1.30857 3.54394L0.582336 3.4017L1.06307 2.83935C1.12536 2.76646 3.09954 0.882727 6.15479 1.86915C8.29198 2.5584 9.87411 4.89569 9.93297 4.99012L8.86139 5.49404C8.8488 5.47417 7.59799 3.27712 5.76451 2.68595C4.28243 2.20776 2.91632 2.66276 2.33134 2.96094C2.95332 3.2092 3.76647 3.66144 4.25648 4.43506C4.48763 4.8005 4.52672 5.26047 4.56438 5.70597C4.61408 6.29571 4.66046 6.85243 5.09448 7.213L3.94196 7.59015ZM2.03823 16.2225C2.03823 16.2225 2.9362 15.1088 3.20225 12.9421C3.30672 12.0885 3.12107 10.4051 2.82411 9.75748C2.87811 11.3497 2.47336 12.9421 2.47336 12.9421C2.47336 12.9421 2.20047 15.8986 2.03823 16.2225Z" fill="#463014"/>
<path d="M6.77359 6.46547C6.77304 6.46316 6.48535 5.20594 5.68777 4.57125C4.56263 3.67627 3.1889 4.15236 3.17565 4.15656L2.9762 3.54032C3.04268 3.51878 4.61288 3.02402 6.05994 4.04126C7.51573 5.06424 7.69044 5.99159 7.70557 6.09396L6.77359 6.46547ZM4.85871 15.4238C4.85871 15.4238 4.38759 14.7494 4.47229 14.0077C4.51448 13.6414 4.68433 13.2653 4.98726 13.1319C5.55049 12.8845 5.80008 13.5229 5.80008 13.5229C5.80008 13.5229 5.00747 13.7185 4.85871 15.4238Z" fill="#463014"/>
<path d="M10.0317 16.4518C10.0513 16.4885 10.0615 16.5092 10.0615 16.5092C10.0615 16.5092 8.5919 17.612 7.08598 16.4928C6.27978 15.8931 6.35598 14.4101 6.60292 13.7811C7.24523 13.9267 7.7899 14.189 8.24513 14.4953C7.66975 13.9818 7.16615 13.6038 7.16748 13.5951L6.51347 13.41L5.24233 12.9741C5.2261 13.071 4.76248 15.2442 6.10076 16.725C6.69381 17.3816 9.47463 18.852 10.795 16.3378L10.0317 16.4517V16.4518Z" fill="#463014"/>
<path d="M9.89407 16.6135C10.7214 17.8727 12.8088 17.1531 12.773 15.8219C12.773 15.8219 11.3781 16.5916 10.1458 15.1743C9.42625 14.3469 7.12087 12.0653 3.99438 12.8235C6.15344 13.2984 9.012 15.2708 9.89407 16.6135Z" fill="#463014"/>
<path d="M3.70244 20.1673C3.90145 20.2823 4.60339 21.0093 4.60383 22.0964C4.60383 22.6417 4.54961 25.3805 4.2797 27.0538C4.68556 27.3175 4.96828 27.3736 5.37248 27.6424C5.5748 25.7046 5.71992 22.8959 5.65233 21.762C5.57502 20.4696 4.88291 19.6022 4.24116 19.2324C4.04016 19.1167 3.83022 19.0031 3.61873 18.8888C2.51955 18.2949 1.38281 17.6804 1.38281 16.6313C1.38281 15.8106 1.70198 15.5539 2.0397 15.2818L2.07614 15.2523C2.30033 15.0712 2.55389 14.8658 2.7042 14.5286C3.11425 13.6067 3.18129 11.258 2.7042 10.6619C2.46632 10.3648 1.82909 9.36577 2.01231 8.69442C2.0821 8.4382 2.24345 8.24825 2.50618 8.11374C2.78416 7.97127 3.15975 7.89916 3.62205 7.89916C4.53006 7.89916 5.53725 8.17558 6.05686 8.34013C7.91365 8.92865 10.1542 10.6254 10.7964 11.1314C10.8148 11.1456 10.8257 11.1539 10.8277 11.1552L11.2386 11.441L10.9816 11.011C10.9657 10.9841 9.33796 8.30755 6.42738 7.32621C5.86117 7.13526 4.74873 6.81488 3.6554 6.81488C3.00459 6.81488 2.45218 6.92863 2.01496 7.15249C1.48188 7.42516 1.12097 7.86017 0.970993 8.41015C0.603457 9.75826 1.80049 11.2592 1.84124 11.3073C1.98083 11.5564 2.04003 13.3661 1.71755 14.0904C1.67338 14.1904 1.55167 14.2886 1.39783 14.4129C1.34957 14.4519 1.29568 14.4924 1.23858 14.5357C0.783691 14.879 0.0958862 15.3978 0.0958862 16.5935C0.0958862 18.2295 1.75399 19.1165 3.08653 19.8297C3.3052 19.9473 3.51382 20.0587 3.70244 20.1673Z" fill="#463014"/>
<path d="M3.94196 7.59012C3.22908 6.99873 3.7604 6.44996 3.70407 5.77806C3.67348 5.42057 3.64521 5.0833 3.52737 4.89721C2.87137 3.86153 1.32403 3.54722 1.30857 3.54391L0.582336 3.40167L1.06307 2.83932C1.12536 2.76643 3.09954 0.882698 6.15479 1.86913C8.29198 2.55837 9.87411 4.89567 9.93297 4.99009L8.86139 5.49402C8.8488 5.47414 7.59799 3.27709 5.76451 2.68592C4.28243 2.20773 2.91632 2.66273 2.33134 2.96091C2.95332 3.20917 3.76647 3.66142 4.25648 4.43503C4.48763 4.80047 4.52672 5.26044 4.56438 5.70595C4.61408 6.29568 4.66046 6.8524 5.09448 7.21298L3.94196 7.59012Z" fill="#463014"/>
<path d="M3.91874 7.71133L3.87269 7.67311C3.34414 7.23446 3.4379 6.80242 3.52868 6.38431C3.56998 6.19137 3.61349 5.99192 3.59582 5.78728C3.567 5.44327 3.53928 5.1187 3.43569 4.95492C2.81116 3.96871 1.3017 3.65286 1.2868 3.64977L0.379883 3.47185L0.981105 2.76892C0.992148 2.75566 2.25975 1.47614 4.40654 1.47614C4.99186 1.47614 5.59143 1.57354 6.1879 1.76625C8.41852 2.48542 10.0097 4.90886 10.0247 4.93283L10.0891 5.03576L8.8215 5.6319L8.7707 5.55128C8.6342 5.3187 7.43231 3.33657 5.73202 2.78813C5.31445 2.6534 4.87447 2.58526 4.42477 2.58526C3.61018 2.58526 2.94965 2.80724 2.59813 2.95633C3.18555 3.22083 3.89798 3.666 4.34857 4.37689C4.59374 4.76408 4.63349 5.2373 4.67237 5.69463C4.72008 6.26316 4.76514 6.7979 5.16404 7.12899L5.31456 7.25378L3.91874 7.71133Z" fill="#463014"/>
<path d="M6.77359 6.46548C6.77304 6.46316 6.48535 5.20594 5.68777 4.57125C4.56263 3.67627 3.1889 4.15236 3.17565 4.15656L2.9762 3.54032C3.04268 3.51878 4.61288 3.02402 6.05994 4.04126C7.51573 5.06424 7.69044 5.99159 7.70557 6.09396L6.77359 6.46548Z" fill="#463014"/>
<path d="M6.69614 6.61246L6.66808 6.48877C6.66521 6.47662 6.38304 5.26247 5.62025 4.65595C5.18546 4.30984 4.66121 4.13402 4.06286 4.13402C3.59582 4.13402 3.24872 4.24556 3.21084 4.25871L3.1078 4.29294L2.84021 3.47096L2.94281 3.43782C2.98875 3.42314 3.40554 3.29315 3.99505 3.29315C4.77276 3.29315 5.50805 3.52143 6.1223 3.9528C7.61464 5.0014 7.79687 5.97115 7.81233 6.07816L7.82547 6.16276L6.69614 6.61246ZM4.06297 3.91856C4.70219 3.91856 5.28773 4.11514 5.75488 4.48665C6.43219 5.02614 6.7508 5.97844 6.8471 6.31991L7.58129 6.02725C7.51481 5.76806 7.22215 4.99013 5.99806 4.12961C5.41241 3.71801 4.73874 3.5095 3.99517 3.5095C3.5871 3.5095 3.27014 3.57444 3.11354 3.61397L3.24596 4.02325C3.39947 3.98195 3.695 3.91856 4.06297 3.91856ZM10.7111 33.4155C10.3921 33.4155 10.0667 33.2998 9.84117 33.1045C9.66845 32.9557 9.08446 32.4193 8.82692 31.7622C8.73084 31.5164 8.75237 31.3199 8.89185 31.1784C8.98793 31.0814 9.18749 30.9656 9.59247 30.9656L9.8806 30.9651C10.224 30.9647 10.802 30.9647 11.2961 30.9647H11.7699C12.078 30.9647 12.2989 31.0314 12.4257 31.1613C12.5889 31.3288 12.5366 31.542 12.4909 31.6542C12.4116 31.8507 12.0831 32.4903 11.5269 33.0849C11.3278 33.298 11.038 33.4155 10.7111 33.4155ZM11.0454 16.6875L9.89396 16.6135C9.89396 16.6135 10.1883 17.1323 10.379 17.8033C10.5944 18.5624 10.1821 19.6717 10.1821 19.6717C10.1821 19.6717 11.7174 17.9334 11.0454 16.6875ZM9.60804 36.4559C5.50982 36.1409 4.06794 32.2684 4.06794 31.4619L5.13819 31.4623L4.60312 31.4619H5.13819C5.14361 31.8105 6.23263 35.1231 9.68999 35.3891L9.60804 36.4559Z" fill="#463014"/>
<path d="M8.45644 29.5177C8.39239 29.1477 8.38576 28.7966 8.46384 28.4517C8.15241 28.2176 7.59359 28.1306 7.17426 27.9947C6.83135 27.7777 5.07661 28.2171 3.80371 26.6765C2.20866 24.7474 2.54428 23.5956 2.54428 23.5956C2.13533 24.05 1.73897 23.8768 1.11566 25.9954C0.491358 28.1145 1.40865 29.5917 3.11822 31.0748C3.92585 31.7753 5.06756 32.064 6.04968 32.1744C5.72068 31.8442 6.61158 31.8111 7.22562 31.5814C7.17669 31.0855 7.25875 30.6042 7.62838 30.2167C7.85124 29.983 8.13805 29.8434 8.43568 29.7321C8.45225 29.6937 8.46627 29.6581 8.48206 29.6212C8.47159 29.5872 8.46303 29.5527 8.45644 29.5177Z" fill="white"/>
<path d="M7.21741 31.5684C7.18185 31.4643 7.15502 31.3583 7.12873 31.2515C7.10035 31.135 6.95899 30.8045 7.13315 31.1818C7.08842 31.0852 7.05916 30.9857 7.03762 30.8854C4.26895 30.8818 1.86031 28.9809 2.3257 24.9845C1.96324 24.5033 1.45567 25.9548 1.45567 25.9548C1.45567 25.9548 0.0695675 29.9793 3.64929 31.5392C4.84201 32.0593 5.89614 32.4323 6.14484 32.2817C6.66291 32.387 7.1305 32.0259 7.30587 31.7883C7.27307 31.7154 7.24304 31.6423 7.21741 31.5684Z" fill="#C9C9C9"/>
<path d="M8.40649 28.9383C8.4108 28.601 8.47971 28.2742 8.64283 27.9487C8.6542 27.9263 8.66734 27.9048 8.6796 27.8829C7.61421 27.8738 6.38725 27.7718 5.3424 27.3536C4.19396 26.8942 2.75739 25.3227 2.51056 23.4761C2.51056 23.4761 0.347755 25.1451 0.983212 28.7174C1.5798 32.0717 4.38679 33.1653 7.58804 33.3502C7.5898 33.3286 7.22801 32.5814 7.34231 32.1238C5.52451 32.2559 3.4918 31.5536 2.51056 29.939C1.61215 28.4612 1.86417 25.9381 2.23336 25.5684C3.13398 28.4102 6.37466 28.9878 8.40649 28.9383Z" fill="#463014"/>
<path d="M8.7419 26.9039C8.16586 28.5944 6.98926 29.9626 6.98926 29.9626C6.98926 29.9626 8.60783 29.8889 8.69717 29.6026C8.76333 29.3914 10.1587 26.1249 10.6943 22.2982C10.1905 23.1259 8.79127 26.7591 8.7419 26.9039Z" fill="#463014"/>
<path d="M17.9123 23.0063C17.9123 23.0063 19.7472 25.8126 21.0939 27.8041C21.3022 28.1122 19.7472 28.1335 19.7472 28.1335L17.9123 23.0062V23.0063ZM17.0383 17.1882C17.0383 17.1882 17.5916 18.5684 17.8942 19.3001C18.2233 20.0955 19.4774 20.4912 19.4774 20.4912C19.4774 20.4912 18.8274 19.8093 18.8274 18.0817C18.8274 17.357 17.8917 17.0688 17.8917 17.0688L17.0383 17.1882Z" fill="#E78724"/>
<path d="M17.5971 17.9685C17.5971 17.9685 18.7305 19.3178 20.8357 18.5621C22.9408 17.8065 23.1564 15.1079 23.1564 14.3522C23.1564 13.5966 19.1625 15.1079 18.6226 15.4318C18.0828 15.7557 17.0575 17.0508 17.5971 17.9685ZM25.5473 3.5509C25.5473 3.5509 23.6043 3.17276 22.3087 4.1984C21.0136 5.22381 20.6356 6.03354 20.6356 6.03354L22.8189 7.76409C22.8189 7.76409 23.8742 7.27486 24.198 5.87153C24.5217 4.46831 24.3059 3.8207 25.5473 3.5509Z" fill="#E78724"/>
<path d="M18.164 14.0712C19.0005 12.8837 20.3786 12.3658 21.4798 12.28C23.3567 12.1332 24.2472 12.7967 24.2472 12.7967C24.2472 12.7967 21.1735 12.9268 20.2874 14.0904C18.638 16.2561 16.2328 16.432 15.848 15.9563C16.2929 15.9785 16.7825 15.7581 17.306 15.2628C17.6331 14.9529 17.8986 14.4481 18.164 14.0712ZM23.3528 18.2698C23.3528 18.2698 26.7628 17.0974 26.1151 15.9103C25.4676 14.7227 25.9825 14.0757 25.9825 14.0757C25.9825 14.0757 27.8873 15.4972 27.4017 17.0084C27.1034 17.9358 26.6031 18.6074 23.8558 19.8949C22.5381 22.3425 23.5837 26.7481 23.5214 26.7687C23.417 26.8034 21.6714 25.9059 21.7906 21.7841C21.8268 20.5185 21.9281 18.7906 23.3528 18.2698ZM18.884 5.66278C20.3135 6.38924 22.2728 7.40096 22.2728 7.40096L21.502 7.78671C21.5755 7.90588 21.6111 7.977 21.6111 7.977L20.8197 8.3368C20.8197 8.3368 18.8877 9.73627 17.704 10.6361C18.0983 9.42075 19.2568 7.51161 19.2568 7.51161C19.2568 7.51161 19.5857 6.63441 18.884 5.66278ZM14.1335 35.2759C18.5281 35.2759 20.0169 33.0447 20.0169 33.0447L19.3305 34.7173C19.0709 35.4409 16.3008 37.6927 14.1402 37.6927" fill="#E78724"/>
<path d="M19.5357 31.537C19.5357 31.537 19.1309 34.0084 17.5121 34.0084C16.1365 34.0084 15.7308 31.9208 15.7308 31.4893L19.5357 31.537ZM22.2303 27.8097C22.0864 27.4137 21.5827 25.8126 21.4205 24.3555C21.2265 22.6102 21.2977 20.0578 21.2977 20.0578C21.2977 20.0578 21.7295 21.7309 22.1069 22.0013C22.4851 22.2709 23.1865 24.1059 23.1865 24.1059C23.1865 24.1059 23.5623 26.8376 23.7412 27.7558C23.2462 27.8549 22.8299 27.5632 22.2303 27.8097ZM26.1408 16.9815C26.1408 16.9815 25.223 16.6574 24.9534 14.6607C24.6836 12.6637 25.2773 10.9365 25.2773 10.9365C25.2773 10.9365 25.2231 13.6891 25.5471 14.229C25.8711 14.7687 26.1408 14.9305 26.5187 15.6323C26.8962 16.334 26.3565 16.7655 26.1408 16.9815Z" fill="#E78724"/>
<path d="M25.045 4.02321L25.2327 3.9046C25.785 3.92327 25.045 4.02321 25.045 4.02321Z" fill="#FDC168"/>
<path d="M18.1368 5.0715C18.1368 5.0715 19.0006 4.92771 19.4321 4.2801C19.864 3.63239 21.0876 2.33684 23.0377 2.32238C24.9876 2.3078 26.9167 2.84066 26.9167 2.84066L25.2327 3.90472C25.0545 3.89887 24.7431 3.9013 24.2277 3.91853C22.1146 3.98877 21.7892 6.07913 21.7892 6.07913L14.3413 5.0535" fill="#FBA919"/>
<path d="M17.4173 16.6174C17.4173 16.6174 18.4249 17.625 19.972 17.3009C21.5195 16.9772 22.4551 16.2935 22.5271 15.106C22.5989 13.9186 22.2033 13.4509 22.2033 13.4509C22.2033 13.4509 20.4759 13.9909 19.6484 14.7106C18.8207 15.4303 18.2091 16.5815 17.4173 16.6174Z" fill="white"/>
<path d="M18.6364 16.2575C18.6364 16.2575 19.5107 16.6566 20.487 16.3315C21.7659 15.905 21.8511 14.5753 21.8511 14.5753C21.8511 14.5753 22.635 16.8772 20.4359 17.3202C18.6724 17.6755 17.629 16.6534 17.629 16.6534L18.6364 16.2574V16.2575Z" fill="#C9C9C9"/>
<path d="M24.3488 7.59012C25.0617 6.99873 24.5308 6.44996 24.5872 5.77806C24.6172 5.42057 24.6455 5.0833 24.7634 4.89721C25.4194 3.86153 26.9668 3.54722 26.9827 3.54391L27.7091 3.40167L27.2282 2.83932C27.1659 2.76643 25.1917 0.882698 22.1359 1.86913C19.9992 2.55837 18.4171 4.89567 18.3583 4.99009L19.4295 5.49402C19.4424 5.47414 20.6934 3.27709 22.5269 2.68592C24.0089 2.20773 25.3748 2.66273 25.9596 2.96091C25.3379 3.20917 24.5244 3.66142 24.0344 4.43503C23.8033 4.80047 23.7645 5.26044 23.727 5.70595C23.6773 6.29568 23.6305 6.8524 23.1963 7.21298L24.3488 7.59012ZM26.2522 16.2225C26.2522 16.2225 25.3547 15.1088 25.0887 12.942C24.9842 12.0885 25.1695 10.4051 25.4664 9.75745C25.4124 11.3496 25.8176 12.942 25.8176 12.942C25.8176 12.942 26.0904 15.8986 26.2522 16.2225Z" fill="#463014"/>
<path d="M21.5174 6.46547C21.5178 6.46316 21.8055 5.20594 22.6032 4.57125C23.7282 3.67627 25.1021 4.15236 25.1149 4.15656L25.3149 3.54032C25.2482 3.51878 23.6782 3.02402 22.2307 4.04126C20.7749 5.06424 20.6007 5.99159 20.5851 6.09396L21.5174 6.46547ZM23.4322 15.4238C23.4322 15.4238 23.9033 14.7494 23.8181 14.0077C23.7764 13.6414 23.6067 13.2653 23.3035 13.1319C22.7404 12.8845 22.4907 13.5229 22.4907 13.5229C22.4907 13.5229 23.2834 13.7185 23.4322 15.4238Z" fill="#463014"/>
<path d="M18.2593 16.4519C18.2396 16.4885 18.2295 16.5092 18.2295 16.5092C18.2295 16.5092 19.6984 17.612 21.2044 16.4928C22.0111 15.8932 21.9349 14.4101 21.6875 13.7812C21.0455 13.9267 20.5009 14.189 20.0454 14.4954C20.6209 13.9818 21.1246 13.6038 21.1228 13.5951L21.7773 13.41L23.0482 12.9743C23.0645 13.0713 23.528 15.2445 22.1893 16.7253C21.5962 17.3819 18.8154 18.8522 17.4955 16.338L18.2593 16.4518V16.4519Z" fill="#463014"/>
<path d="M18.3964 16.6135C17.5692 17.8727 15.4822 17.1531 15.5182 15.8219C15.5182 15.8219 16.9126 16.5916 18.145 15.1743C18.8644 14.3469 21.1703 12.0653 24.2966 12.8235C22.1376 13.2984 19.2791 15.2708 18.3964 16.6135Z" fill="#463014"/>
<path d="M24.5889 20.1673C24.3897 20.2823 23.6874 21.0093 23.6874 22.0964C23.6869 22.6417 23.7413 25.3805 24.0115 27.0538C23.6056 27.3175 23.3228 27.3736 22.9186 27.6424C22.7163 25.7046 22.5708 22.8959 22.6389 21.762C22.7161 20.4696 23.4079 19.6022 24.0495 19.2324C24.2505 19.1167 24.4606 19.0031 24.6725 18.8888C25.7717 18.2949 26.9084 17.6804 26.9084 16.6313C26.9084 15.8106 26.589 15.5539 26.2513 15.2818L26.2153 15.2523C25.9911 15.0712 25.737 14.8658 25.5871 14.5286C25.177 13.6067 25.1097 11.258 25.5867 10.6619C25.8246 10.3648 26.4622 9.36577 26.279 8.69442C26.2088 8.4382 26.0473 8.24825 25.7847 8.11374C25.5066 7.97127 25.1317 7.89916 24.6688 7.89916C23.7614 7.89916 22.7536 8.17558 22.2345 8.34013C20.3777 8.92865 18.1372 10.6254 17.4945 11.1314C17.4762 11.1456 17.4656 11.1539 17.4636 11.1552L17.0523 11.441L17.3093 11.011C17.3256 10.9841 18.953 8.30755 21.8635 7.32621C22.4298 7.13526 23.5422 6.81488 24.6355 6.81488C25.2864 6.81488 25.8382 6.92863 26.2759 7.15249C26.8091 7.42516 27.1698 7.86017 27.32 8.41015C27.6875 9.75826 26.4904 11.2592 26.4495 11.3073C26.3101 11.5564 26.251 13.3661 26.5729 14.0904C26.6173 14.1904 26.7389 14.2886 26.8932 14.4129C26.9413 14.4519 26.9948 14.4924 27.0523 14.5357C27.5073 14.879 28.1948 15.3978 28.1948 16.5935C28.1948 18.2295 26.5367 19.1165 25.2046 19.8297C24.9858 19.9473 24.777 20.0587 24.5889 20.1673Z" fill="#463014"/>
<path d="M22.6108 7.39765C22.3471 6.95093 21.6726 6.08841 20.1182 5.33048C18.3833 4.48497 16.3755 4.05581 14.1497 4.05481V4.05426H14.1411V4.05448C11.9149 4.05559 9.90666 4.48486 8.17235 5.33026C6.61783 6.0883 5.94372 6.9507 5.67978 7.39742L5.56647 7.54729L6.89768 7.84359L6.93987 7.79025L6.96218 7.74144C6.98272 7.65342 7.16118 7.17843 8.64524 6.45473C10.2319 5.68089 12.0825 5.28851 14.145 5.28785C16.208 5.28851 18.0578 5.68089 19.6443 6.45473C21.1285 7.17843 21.3076 7.65342 21.3279 7.74133L21.3501 7.79025L21.3918 7.84359L22.7234 7.54729L22.6108 7.39765Z" fill="#463014"/>
<path d="M24.3488 7.59012C25.0617 6.99873 24.5308 6.44996 24.5872 5.77806C24.6172 5.42057 24.6455 5.0833 24.7634 4.89721C25.4194 3.86153 26.9668 3.54722 26.9827 3.54391L27.7091 3.40167L27.2282 2.83932C27.1659 2.76643 25.1917 0.882698 22.1359 1.86913C19.9992 2.55837 18.4171 4.89567 18.3583 4.99009L19.4295 5.49402C19.4424 5.47414 20.6934 3.27709 22.5269 2.68592C24.0089 2.20773 25.3748 2.66273 25.9596 2.96091C25.3379 3.20917 24.5244 3.66142 24.0344 4.43503C23.8033 4.80047 23.7645 5.26044 23.727 5.70595C23.6773 6.29568 23.6305 6.8524 23.1963 7.21298L24.3488 7.59012Z" fill="#463014"/>
<path d="M22.977 7.25433L23.127 7.12943C23.5262 6.79834 23.5709 6.2636 23.6192 5.69507C23.6578 5.23763 23.6977 4.7643 23.9428 4.37733C24.3931 3.66666 25.106 3.22138 25.6932 2.95655C25.3417 2.80768 24.681 2.5857 23.8663 2.5857C23.4164 2.5857 22.9773 2.65373 22.5595 2.78857C20.8588 3.337 19.657 5.31914 19.521 5.55172L19.4699 5.63234L18.2023 5.0362L18.2668 4.93327C18.2817 4.9093 19.8726 2.48597 22.1032 1.76669C22.6997 1.57398 23.2992 1.47668 23.885 1.47668C26.0318 1.47668 27.2995 2.75654 27.3103 2.76947L27.9117 3.4724L27.0044 3.6502C26.9894 3.6533 25.4801 3.96904 24.8551 4.95547C24.7515 5.11936 24.7243 5.4436 24.695 5.78783C24.6778 5.99258 24.7208 6.19203 24.7627 6.38486C24.8533 6.80298 24.9471 7.23545 24.4182 7.67366L24.3723 7.71188L22.977 7.25433Z" fill="#463014"/>
<path d="M21.5174 6.46548C21.5178 6.46316 21.8055 5.20594 22.6032 4.57125C23.7282 3.67627 25.1021 4.15236 25.1149 4.15656L25.3149 3.54032C25.2482 3.51878 23.6782 3.02402 22.2307 4.04126C20.7749 5.06424 20.6007 5.99159 20.5851 6.09396L21.5174 6.46548Z" fill="#463014"/>
<path d="M20.466 6.16277L20.4786 6.07818C20.4944 5.97116 20.6767 5.00163 22.1688 3.95281C22.7826 3.52144 23.5181 3.29327 24.2958 3.29327C24.8856 3.29327 25.3024 3.42293 25.3486 3.43784L25.451 3.47097L25.1836 4.29295L25.0803 4.25872C25.0417 4.24569 24.6948 4.13403 24.228 4.13403C23.6297 4.13403 23.1058 4.30963 22.671 4.65596C21.9081 5.26271 21.6258 6.47686 21.6232 6.48878L21.5951 6.61225L20.466 6.16277ZM25.045 4.02327L25.1778 3.61398C25.0211 3.57423 24.7039 3.50951 24.2958 3.50951C23.5523 3.50951 22.8784 3.71824 22.2931 4.12962C21.0686 4.99037 20.7759 5.76807 20.7095 6.02726L21.4443 6.31992C21.5404 5.97823 21.8586 5.02593 22.5363 4.48666C23.0039 4.11504 23.5888 3.91857 24.2279 3.91857C24.5954 3.91857 24.8915 3.98196 25.0451 4.02327H25.045ZM16.7644 33.0849C16.2083 32.4904 15.8793 31.8506 15.7998 31.6542C15.7543 31.5422 15.7026 31.3288 15.8656 31.1612C15.9928 31.0314 16.2131 30.9647 16.5211 30.9647H16.9952C17.4893 30.9647 18.067 30.9647 18.4106 30.9652L18.6988 30.9656C19.1035 30.9656 19.3029 31.0813 19.3989 31.1784C19.5385 31.3197 19.5602 31.5161 19.464 31.7622C19.2067 32.4194 18.6225 32.9558 18.4499 33.1046C18.2237 33.2998 17.899 33.4155 17.5801 33.4155C17.2532 33.4155 16.9635 33.298 16.7644 33.0849ZM17.2457 16.6875L18.3964 16.6135C18.3964 16.6135 18.1026 17.1323 17.9118 17.8033C17.6965 18.5624 18.1087 19.6717 18.1087 19.6717C18.1087 19.6717 16.5733 17.9334 17.2457 16.6875Z" fill="#463014"/>
<path d="M14.1456 12.5767C13.4117 12.5767 12.4549 12.5566 11.7369 12.0406C11.7369 12.0406 12.677 13.6884 14.1444 13.6884L14.1456 13.4799L14.1468 13.6884C15.6143 13.6884 16.5541 12.0407 16.5541 12.0407C15.8363 12.5564 14.8788 12.5767 14.1456 12.5767Z" fill="#E78724"/>
<path d="M16.1662 12.5687C15.4301 13.0142 14.7727 13.1686 14.1456 13.1823C13.5183 13.1686 12.8612 13.0142 12.1251 12.5687C12.1251 12.5687 13.1971 13.8768 14.1402 13.8868V13.8876C14.1419 13.8876 14.1435 13.8872 14.1455 13.8872C14.1472 13.8872 14.1488 13.8876 14.1508 13.8876V13.8868C15.0937 13.8768 16.1662 12.5687 16.1662 12.5687ZM18.6829 36.4559L18.6009 35.3888C22.0574 35.123 23.1465 31.8104 23.1521 31.4616H24.2225C24.2229 32.2682 22.7806 36.1409 18.6829 36.4559Z" fill="#463014"/>
<path d="M19.8344 29.5177C19.8988 29.1477 19.9051 28.7966 19.827 28.4517C20.1388 28.2176 20.6972 28.1306 21.1166 27.9947C21.4595 27.7777 23.2146 28.2171 24.4877 26.6765C26.0826 24.7474 25.7465 23.5956 25.7465 23.5956C26.1558 24.05 26.5518 23.8768 27.1756 25.9954C27.7999 28.1145 26.8822 29.5917 25.1726 31.0748C24.3651 31.7753 23.2233 32.064 22.2411 32.1744C22.5701 31.8442 21.6792 31.8111 21.0655 31.5814C21.1146 31.0855 21.0322 30.6042 20.6625 30.2167C20.4401 29.983 20.1529 29.8434 19.8556 29.7321C19.8388 29.6937 19.8244 29.6581 19.8091 29.6212C19.8189 29.5875 19.8281 29.5535 19.8344 29.5177Z" fill="white"/>
<path d="M21.073 31.5684C21.109 31.4643 21.1353 31.3583 21.1617 31.2515C21.1905 31.135 21.3319 30.8045 21.1574 31.1818C21.2022 31.0852 21.2314 30.9857 21.253 30.8854C24.0217 30.8818 26.4304 28.9809 25.9645 24.9845C26.327 24.5033 26.8349 25.9548 26.8349 25.9548C26.8349 25.9548 28.221 29.9793 24.6413 31.5392C23.4485 32.0593 22.3946 32.4323 22.1458 32.2817C21.6273 32.387 21.1596 32.0259 20.9847 31.7883C21.0174 31.7154 21.0481 31.6423 21.073 31.5684Z" fill="#C9C9C9"/>
<path d="M19.8839 28.9383C19.8801 28.601 19.8107 28.2742 19.6482 27.9487C19.6366 27.9263 19.6234 27.9048 19.6113 27.8829C20.6765 27.8738 21.9036 27.7718 22.9485 27.3536C24.0968 26.8942 25.5334 25.3227 25.7803 23.4761C25.7803 23.4761 27.9431 25.1451 27.3077 28.7174C26.7106 32.0717 23.904 33.1653 20.7028 33.3502C20.7011 33.3286 21.063 32.5814 20.9486 32.1238C22.7658 32.2559 24.7986 31.5536 25.7804 29.939C26.6783 28.4612 26.4265 25.9381 26.0572 25.5684C25.1569 28.4102 21.9159 28.9878 19.8839 28.9383Z" fill="#463014"/>
<path d="M21.1766 29.7797C20.7942 29.3662 20.091 28.8734 18.4697 28.8734L14.151 28.8708H14.1404C12.8958 28.8717 9.8212 28.8734 9.8212 28.8734C8.2002 28.8734 7.49705 29.3663 7.11438 29.7797C6.557 30.3815 6.46953 31.2185 6.85518 32.2648C7.87982 35.0497 9.31982 37.8791 14.1402 37.883V37.8835C14.142 37.8835 14.1435 37.883 14.1455 37.883C14.1471 37.883 14.1488 37.8835 14.1508 37.8835V37.883C18.9707 37.8788 20.4107 35.0497 21.4357 32.2648C21.8213 31.2185 21.7337 30.3815 21.1766 29.7797ZM20.4262 32.0695C19.9381 33.468 18.6259 36.8529 14.1454 36.8587C9.66427 36.8529 8.35271 33.4681 7.86447 32.0695C7.59434 31.2936 7.61488 30.7194 7.92764 30.3628C8.14134 30.119 8.63212 29.8279 9.75063 29.8279L10.9192 29.8275C11.7812 29.8267 12.8636 29.8259 14.1455 29.8253C15.4269 29.8259 16.5098 29.8267 17.3717 29.8275L18.5398 29.8279C19.6586 29.8279 20.1493 30.1188 20.3631 30.3628C20.6756 30.7197 20.6963 31.2936 20.4261 32.0695H20.4262Z" fill="#463014"/>
<path d="M19.5488 26.9039C20.1248 28.5944 21.3014 29.9626 21.3014 29.9626C21.3014 29.9626 19.6828 29.8889 19.5934 29.6026C19.5277 29.3914 18.1323 26.1249 17.5967 22.2982C18.1001 23.1259 19.4993 26.7591 19.5488 26.9039Z" fill="#463014"/>
</g>
<defs>
<clipPath id="clip0_43_36">
<rect width="28.272" height="38" fill="white"/>
</clipPath>
</defs>
</svg>
