<svg width="18" height="38" viewBox="0 0 18 38" fill="none" xmlns="http://www.w3.org/2000/svg">
<path fill-rule="evenodd" clip-rule="evenodd" d="M8.506 29.9857C6.27964 29.9857 4.55933 29.6512 3.73206 29.4519C3.16635 29.3156 2.71209 29.1746 2.367 29.0297L3.47031 30.9147L3.9019 36.8045C3.9019 37.4648 5.99945 38 8.58687 38C11.1743 38 13.2719 37.4648 13.2719 36.8045L13.6136 30.8506L14.6575 29.0242C14.311 29.171 13.8527 29.3139 13.2798 29.4519C12.4526 29.6512 10.7323 29.9857 8.506 29.9857ZM14.6933 10.8201C13.0593 11.0483 10.8907 11.174 8.58687 11.174C6.2831 11.174 4.11443 11.0483 2.48042 10.8201C1.671 10.7071 1.03063 10.5737 0.577054 10.424C0.468863 10.3882 0.285519 10.3272 0.109079 10.2299L1.12146 19.5473C1.16851 19.3868 1.22088 19.2266 1.27897 19.0669C1.39781 18.7397 1.53529 18.4197 1.69132 18.1072C1.84744 17.7947 2.01737 17.4993 2.20111 17.2211C2.38475 16.943 2.58032 16.6869 2.78753 16.4528C2.99484 16.2189 3.20748 16.0177 3.42583 15.8491C3.64409 15.6806 3.86442 15.5488 4.08682 15.454C4.30932 15.3591 4.52964 15.3116 4.7479 15.3116C4.9993 15.3116 5.2425 15.3803 5.47743 15.5178C5.71225 15.6552 5.93179 15.8778 6.13634 16.1854C6.18329 16.2541 6.21307 16.3236 6.2254 16.394C6.23793 16.4644 6.24404 16.5307 6.24404 16.5928C6.24404 16.74 6.20883 16.8563 6.13841 16.9413C6.06799 17.0264 5.98436 17.069 5.88771 17.069C5.79914 17.069 5.71699 17.0223 5.64105 16.9291C5.56501 16.8358 5.48009 16.7025 5.3861 16.529C5.29764 16.3719 5.20029 16.2583 5.09398 16.1878C4.98756 16.1175 4.87227 16.0823 4.7479 16.0823C4.5545 16.0823 4.34798 16.1625 4.12834 16.3229C3.9086 16.4831 3.69104 16.6951 3.47564 16.9585C3.26005 17.222 3.05352 17.523 2.85598 17.8618C2.65843 18.2005 2.48357 18.5473 2.33159 18.9024C2.17961 19.2576 2.05889 19.6079 1.96905 19.953C1.8792 20.2982 1.83432 20.6083 1.83432 20.8832C1.83432 20.9749 1.84064 21.0691 1.85296 21.1654C1.86549 21.2621 1.88886 21.3496 1.92348 21.4282C1.9579 21.5068 2.00495 21.5713 2.06432 21.6219C2.12379 21.6728 2.19904 21.698 2.29017 21.698C2.39244 21.698 2.50843 21.6637 2.63841 21.5949C2.7682 21.5264 2.90292 21.4363 3.04238 21.3251C3.18193 21.2138 3.32218 21.0878 3.46311 20.947C3.60415 20.8063 3.73532 20.664 3.85683 20.5199C3.97833 20.376 4.08613 20.2377 4.18002 20.1052C4.27401 19.9727 4.34443 19.8573 4.39147 19.759L4.7769 18.6054C4.82384 18.4812 4.88529 18.3928 4.96132 18.3404C5.03727 18.2881 5.11538 18.2618 5.19556 18.2618C5.23412 18.2618 5.27278 18.2684 5.31154 18.2814C5.3503 18.2946 5.38472 18.3151 5.4152 18.3428C5.44557 18.3707 5.46974 18.4066 5.48769 18.4509C5.50564 18.495 5.51461 18.5465 5.51461 18.6054C5.51461 18.7625 5.5008 18.9097 5.47319 19.0473C5.44557 19.1848 5.41036 19.3189 5.36746 19.4499C5.32466 19.5806 5.27692 19.7124 5.22446 19.8449C5.17199 19.9775 5.1208 20.1158 5.07119 20.2599C5.06015 20.2762 5.04013 20.3276 5.01103 20.4143C4.98204 20.5012 4.94693 20.6101 4.9054 20.7409C4.86398 20.8718 4.81901 21.0182 4.77068 21.1802C4.72226 21.3423 4.67265 21.5075 4.62156 21.676C4.57038 21.8446 4.52136 22.0099 4.47441 22.1719C4.42737 22.3338 4.38516 22.4803 4.34798 22.6113C4.3107 22.7421 4.27963 22.8516 4.25468 22.9401C4.22982 23.0285 4.21464 23.0807 4.20911 23.0973C4.19531 23.1495 4.17311 23.2077 4.14284 23.2714C4.11246 23.3352 4.07656 23.3958 4.03504 23.453C3.99362 23.5102 3.94805 23.5579 3.89825 23.5954C3.84854 23.6329 3.79745 23.6519 3.74489 23.6519C3.65652 23.6519 3.59221 23.6224 3.55227 23.5636C3.51213 23.5046 3.49221 23.3966 3.49221 23.2396V23.1709C3.49221 23.1479 3.49349 23.1232 3.49625 23.0973C3.49892 23.0448 3.51973 22.9466 3.55848 22.8025C3.59715 22.6586 3.6434 22.4959 3.69735 22.3142C3.7512 22.1325 3.80929 21.9444 3.87142 21.7496C3.93346 21.5549 3.98948 21.3807 4.03928 21.2269C3.89263 21.3906 3.73394 21.5533 3.56263 21.7154C3.39122 21.8773 3.21576 22.023 3.03627 22.1522C2.85657 22.2815 2.67559 22.387 2.49334 22.4689C2.31098 22.5506 2.13552 22.5917 1.96697 22.5917C1.77357 22.5917 1.60709 22.549 1.46744 22.4639C1.44229 22.4484 1.41852 22.4312 1.39485 22.414L1.9582 28.3205C2.10485 28.688 4.86576 29.5912 8.506 29.5912C12.1479 29.5912 14.9099 28.6872 15.054 28.3199L15.8632 21.2976C15.7963 21.359 15.7311 21.4191 15.6687 21.4773C15.4366 21.6932 15.2175 21.8789 15.0117 22.0343C14.806 22.1898 14.6049 22.3102 14.4087 22.3951C14.2124 22.4803 14.0025 22.5228 13.7787 22.5228C13.5687 22.5228 13.4063 22.4769 13.2917 22.3853C13.1771 22.2938 13.1197 22.1679 13.1197 22.0074V21.9706C13.1197 21.9592 13.1211 21.9452 13.1239 21.9288C13.1349 21.8308 13.1779 21.7176 13.2524 21.5901C13.327 21.4624 13.4167 21.3299 13.5217 21.1926C13.6267 21.0551 13.7385 20.9159 13.8574 20.7752C13.9762 20.6345 14.0861 20.5012 14.187 20.3751C14.2878 20.2493 14.3713 20.1339 14.4376 20.0291C14.5041 19.9243 14.5372 19.8393 14.5372 19.7738C14.5372 19.7346 14.5233 19.7035 14.4958 19.6804C14.4681 19.6578 14.4224 19.6461 14.359 19.6461C14.2484 19.6461 14.1344 19.6748 14.0172 19.732C13.8996 19.7892 13.7834 19.8663 13.6688 19.9628C13.5542 20.0594 13.4423 20.1699 13.3331 20.2942C13.2241 20.4185 13.1218 20.5478 13.0265 20.6819C12.9311 20.8162 12.8442 20.9512 12.7654 21.087C12.6866 21.2228 12.6196 21.348 12.5643 21.4624C12.5477 21.4985 12.5243 21.5493 12.4938 21.6146C12.4634 21.6801 12.4303 21.7538 12.3944 21.8356C12.3584 21.9174 12.3204 22.0018 12.2804 22.0883C12.2403 22.1752 12.2037 22.257 12.1706 22.3338C12.1375 22.4108 12.1078 22.4793 12.0816 22.54C12.0552 22.6004 12.0366 22.6422 12.0255 22.6652C12.0117 22.6946 11.9889 22.7501 11.9572 22.832C11.9254 22.9139 11.8887 23.0096 11.8474 23.1192C11.806 23.2288 11.7624 23.3442 11.7167 23.4654C11.6714 23.5863 11.6284 23.701 11.5883 23.809C11.5482 23.9169 11.513 24.0118 11.4827 24.0937C11.4523 24.1754 11.4328 24.2311 11.4245 24.2606C11.397 24.3457 11.3644 24.4257 11.3273 24.5012C11.2899 24.5764 11.2472 24.6427 11.1988 24.7001C11.1504 24.7573 11.0952 24.803 11.033 24.8373C10.9707 24.8719 10.901 24.8889 10.8238 24.8889C10.7242 24.8889 10.6421 24.8651 10.577 24.8177C10.5122 24.7703 10.4797 24.6793 10.4797 24.5453C10.4797 24.4798 10.488 24.4128 10.5045 24.3441C10.5211 24.2754 10.5419 24.2073 10.5668 24.1404C10.5916 24.0731 10.6173 24.0078 10.6435 23.944C10.6696 23.8801 10.6939 23.8188 10.7159 23.7599C10.8652 23.4326 11.0172 23.1046 11.1718 22.7756C11.3265 22.4468 11.475 22.1212 11.6174 21.7988C11.647 21.7315 11.6742 21.6657 11.7031 21.5988C11.6944 21.6073 11.686 21.6162 11.6775 21.6244C11.4978 21.798 11.319 21.9509 11.1408 22.0834C10.9625 22.216 10.7856 22.3215 10.6104 22.4001C10.4348 22.4785 10.2642 22.5179 10.0983 22.5179C9.98508 22.5179 9.8905 22.4999 9.81456 22.4639C9.73852 22.4278 9.67786 22.3787 9.6322 22.3167C9.58654 22.2545 9.55399 22.1809 9.53466 22.0958C9.52815 22.0667 9.52411 22.0363 9.51987 22.006C9.47134 22.0438 9.42242 22.0806 9.37311 22.1155C9.2018 22.2364 9.03325 22.3338 8.86746 22.4074C8.70177 22.4811 8.55245 22.5179 8.42 22.5179C8.28725 22.5179 8.17955 22.4737 8.09651 22.3853C8.01367 22.2971 7.97234 22.1465 7.97234 21.9338C7.97234 21.7831 7.99443 21.6081 8.03852 21.4085C7.96672 21.5362 7.87697 21.6655 7.76927 21.7962C7.66138 21.9272 7.53849 22.0466 7.40042 22.1547C7.26205 22.2626 7.1074 22.3502 6.93619 22.4173C6.76478 22.4843 6.57828 22.5179 6.37669 22.5179C6.28546 22.5179 6.19778 22.5064 6.11346 22.4836C6.02914 22.4606 5.95527 22.4213 5.89175 22.3657C5.82814 22.3102 5.77715 22.2356 5.73839 22.1424C5.69973 22.0492 5.6804 21.932 5.6804 21.7914C5.6804 21.7882 5.68592 21.7382 5.69697 21.6416C5.70801 21.545 5.74322 21.3929 5.80269 21.1851C5.86207 20.9774 5.95398 20.7081 6.07815 20.3775C6.20262 20.047 6.37807 19.6461 6.60461 19.175C6.6626 19.0505 6.72967 18.9614 6.80551 18.9074C6.88165 18.8534 6.96371 18.8263 7.05207 18.8263C7.09083 18.8263 7.13088 18.8322 7.1723 18.8435C7.21392 18.855 7.25248 18.873 7.28848 18.8976C7.32428 18.9221 7.35337 18.9533 7.37556 18.9909C7.39746 19.0284 7.4087 19.0717 7.4087 19.1208C7.4087 19.1536 7.40446 19.1848 7.39618 19.214C7.38227 19.27 7.35258 19.3426 7.30722 19.4325C7.26155 19.5226 7.2083 19.6257 7.14744 19.7419C7.08679 19.8581 7.02249 19.9832 6.95483 20.1175C6.88707 20.2516 6.82425 20.3906 6.76626 20.5347C6.70827 20.6788 6.65846 20.8252 6.61704 20.9741C6.57562 21.123 6.55205 21.2679 6.54662 21.4085C6.54662 21.4674 6.56033 21.5214 6.58804 21.5705C6.61566 21.6196 6.66132 21.6441 6.72484 21.6441C6.90433 21.6441 7.07565 21.5851 7.23877 21.4674C7.4017 21.3496 7.5522 21.2031 7.69047 21.0281C7.82865 20.853 7.9536 20.6647 8.06554 20.4634C8.17748 20.2621 8.27068 20.0782 8.34524 19.9112C8.39781 19.8001 8.44407 19.6804 8.48411 19.5529C8.52415 19.4252 8.56774 19.3075 8.61469 19.1994C8.66173 19.0914 8.71548 19.0014 8.77633 18.9294C8.83699 18.8575 8.91313 18.8214 9.00416 18.8214C9.10377 18.8214 9.18237 18.8591 9.24056 18.9343C9.29855 19.0097 9.32745 19.0996 9.32745 19.2043C9.32745 19.2632 9.30891 19.3443 9.27153 19.4474C9.23415 19.5505 9.1872 19.6683 9.13059 19.8009C9.07388 19.9334 9.01244 20.0749 8.94626 20.2253C8.87999 20.376 8.81835 20.5289 8.76193 20.6844C8.70503 20.8399 8.65828 20.9921 8.6209 21.141C8.58352 21.2898 8.56498 21.4282 8.56498 21.5557C8.56498 21.6736 8.62573 21.7325 8.74724 21.7325C8.83294 21.7325 8.93926 21.703 9.06639 21.6441C9.19352 21.5851 9.32686 21.5025 9.46631 21.3961C9.50113 21.3696 9.53624 21.3419 9.57105 21.3128C9.61001 21.1521 9.65567 21.0036 9.70883 20.8686C9.80548 20.6131 9.90362 20.3597 10.0031 20.1077C10.1025 19.8557 10.1937 19.6249 10.2767 19.4154L11.5324 16.2492C11.5821 16.1216 11.6492 16.0315 11.7333 15.9791C11.8177 15.9269 11.9026 15.9006 11.9883 15.9006C12.0739 15.9006 12.1519 15.9285 12.2224 15.9841C12.2929 16.0398 12.3282 16.1297 12.3282 16.2541C12.3282 16.313 12.3164 16.3752 12.2929 16.4406C12.2694 16.5061 12.2397 16.5764 12.2037 16.6517C12.1348 16.8056 12.0526 16.9937 11.9572 17.2162C11.8618 17.4388 11.7595 17.681 11.6505 17.9428C11.5413 18.2046 11.4293 18.477 11.3147 18.7601C11.2001 19.0432 11.0882 19.3189 10.979 19.5872C10.87 19.8557 10.7677 20.11 10.6723 20.3506C10.577 20.5911 10.495 20.7998 10.4257 20.9765C10.3954 21.0517 10.3657 21.1394 10.3368 21.2392C10.3077 21.3389 10.2933 21.4282 10.2933 21.5068C10.2933 21.5557 10.3016 21.5949 10.3181 21.6244C10.3347 21.6539 10.3665 21.6687 10.4134 21.6687C10.4714 21.6687 10.5439 21.6483 10.631 21.6073C10.718 21.5664 10.8119 21.5123 10.9127 21.4452C11.0137 21.3783 11.1187 21.3013 11.2277 21.2145C11.3369 21.1279 11.4453 21.0379 11.553 20.9446C11.6609 20.8512 11.7638 20.758 11.8618 20.6647C11.9598 20.5715 12.0477 20.4856 12.1251 20.407C12.1433 20.3882 12.165 20.3749 12.1889 20.3649C12.2355 20.2255 12.2781 20.089 12.3157 19.9555C12.3378 19.8965 12.3683 19.8132 12.4069 19.7051C12.4455 19.597 12.4898 19.4907 12.5395 19.3859C12.5892 19.2813 12.6453 19.1904 12.7072 19.1135C12.7695 19.0367 12.8365 18.9982 12.9083 18.9982C13.0189 18.9982 13.0991 19.0236 13.1488 19.0742C13.1985 19.1251 13.2233 19.1994 13.2233 19.2977C13.2233 19.3173 13.2206 19.3484 13.215 19.3909C13.2094 19.4335 13.2027 19.4786 13.1944 19.526C13.1861 19.5733 13.1771 19.6184 13.1674 19.661C13.1576 19.7035 13.1488 19.7346 13.1405 19.7542C13.2426 19.6429 13.3531 19.5325 13.472 19.4229C13.5908 19.3133 13.7137 19.214 13.8408 19.1259C13.968 19.0374 14.0978 18.9656 14.2306 18.9097C14.363 18.8543 14.4958 18.8263 14.6283 18.8263C14.7195 18.8263 14.81 18.8395 14.8998 18.8657C14.9895 18.8918 15.0698 18.9303 15.1401 18.981C15.2106 19.0319 15.268 19.0956 15.3121 19.1725C15.3563 19.2494 15.3784 19.3385 15.3784 19.44C15.3784 19.5743 15.3447 19.7174 15.2769 19.8696C15.2092 20.0218 15.1243 20.1747 15.022 20.3284C14.9198 20.4824 14.8092 20.632 14.6906 20.7776C14.5717 20.9233 14.4606 21.0558 14.3569 21.1752C14.2533 21.2948 14.1662 21.3961 14.0957 21.4796C14.0254 21.5632 13.9886 21.6196 13.9859 21.6491C13.9859 21.6883 13.9984 21.7202 14.0233 21.7449C14.0481 21.7693 14.0896 21.7816 14.1475 21.7816C14.1945 21.7816 14.2637 21.7554 14.3548 21.703C14.4459 21.6507 14.5738 21.5599 14.7381 21.4306C14.9024 21.3013 15.1112 21.1279 15.364 20.9102C15.5374 20.7611 15.7403 20.5833 15.969 20.381L17.0652 10.2296C16.8886 10.3271 16.705 10.3882 16.5967 10.424C16.1432 10.5737 15.5028 10.7071 14.6933 10.8201ZM8.58037 8.41156C3.84159 8.41156 0 8.94141 0 9.59506C0 10.2487 3.84159 10.7786 8.58037 10.7786C13.3191 10.7786 17.1607 10.2487 17.1607 9.59506C17.1607 8.94141 13.3191 8.41156 8.58037 8.41156ZM12.0064 9.94094C12.0064 10.0943 11.5499 10.2187 10.9866 10.2187C10.4235 10.2187 9.96693 10.0943 9.96693 9.94094C9.96693 9.78748 10.4235 9.66311 10.9866 9.66311C11.5499 9.66311 12.0064 9.78748 12.0064 9.94094Z" fill="#DA4648"/>
<path fill-rule="evenodd" clip-rule="evenodd" d="M10.1734 9.81813C10.1684 9.82619 10.1658 9.83443 10.1658 9.84279C10.1658 9.94211 10.5333 10.0225 10.9866 10.0225C11.44 10.0225 11.8075 9.94211 11.8075 9.84279L12.8796 5.4956L17.1435 0.993893C17.1449 0.99252 17.1462 0.991099 17.1475 0.989629C17.2378 0.887552 17.0546 0.571657 16.7508 0.300734C16.4469 0.0298116 16.1188 -0.0619095 16.0168 0.0412521C16.016 0.0420237 16.0153 0.0428061 16.0146 0.0435993L11.4653 4.83067L10.1734 9.81813Z" fill="#DA4648"/>
</svg>
