<svg width="34" height="38" viewBox="0 0 34 38" fill="none" xmlns="http://www.w3.org/2000/svg">
<g clip-path="url(#clip0_43_12)">
<path d="M0.192014 2.176L2.81901 31.946C2.92801 33.183 3.78901 34.226 4.98301 34.567L15.626 37.608C16.524 37.865 17.475 37.865 18.373 37.608L29.016 34.567C30.21 34.226 31.071 33.184 31.18 31.946L33.807 2.176C33.911 1.006 32.99 0 31.816 0H2.18401C1.01001 0 0.0890143 1.006 0.192014 2.176Z" fill="url(#paint0_linear_43_12)"/>
<path d="M17 3V34.9L26.876 32.078C27.673 31.85 28.247 31.154 28.319 30.329L30.605 4.087C30.656 3.502 30.196 3 29.609 3H17Z" fill="#F09601"/>
<path d="M17 20V16H25.6L24.9 27.5L17 30.1V25.9L21.1 24.5L21.4 20H17ZM25.9 12L26.2 8H17V12H25.9Z" fill="white"/>
<path d="M17 25.9V30.1L9.10003 27.5L8.70002 22H12.7L12.9 24.5L17 25.9ZM12.1 12H17V8H7.90002L8.60003 20H17V16H12.4L12.1 12Z" fill="#D6E0E9"/>
<path opacity="0.05" d="M26.2 8L25.9 12H17H12.1L12.4 16H17H25.6L24.9 27.5L17 30.1L9.10003 27.5L8.70003 22H12.7L12.9 24.5L17 25.9L21.1 24.5L21.4 20H17H8.60003L7.90003 8H17H26.2ZM27.278 7H26.2H17H7.90003H6.84003L6.90203 8.058L7.60203 20.058L7.65703 21H7.62503L7.70303 22.073L8.10303 27.573L8.15203 28.241L8.78803 28.45L16.688 31.05L17 31.153L17.313 31.05L25.213 28.45L25.857 28.238L25.898 27.561L26.598 16.061L26.663 15H25.6H17H13.328L13.178 13H17H25.9H26.828L26.897 12.075L27.197 8.075L27.278 7ZM13.623 21H17H20.331L20.146 23.769L17 24.843L13.844 23.766L13.696 21.92L13.623 21Z" fill="black"/>
<path opacity="0.07" d="M26.2 8L25.9 12H17H12.1L12.4 16H17H25.6L24.9 27.5L17 30.1L9.1 27.5L8.7 22H12.7L12.9 24.5L17 25.9L21.1 24.5L21.4 20H17H8.6L7.89999 8H17H26.2ZM26.739 7.5H26.2H17H7.89999H7.37L7.401 8.029L8.101 20.029L8.128 20.5H8.6H17H20.866L20.624 24.134L17 25.372L13.372 24.133L13.198 21.96L13.161 21.5H12.7H8.7H8.16199L8.201 22.036L8.601 27.536L8.625 27.87L8.943 27.975L16.843 30.575L17 30.626L17.156 30.575L25.056 27.975L25.378 27.869L25.399 27.53L26.099 16.03L26.131 15.5H25.6H17H12.864L12.639 12.5H17H25.9H26.364L26.399 12.037L26.699 8.037L26.739 7.5Z" fill="black"/>
</g>
<defs>
<linearGradient id="paint0_linear_43_12" x1="11.208" y1="-2.587" x2="27.159" y2="41.236" gradientUnits="userSpaceOnUse">
<stop stop-color="#F09701"/>
<stop offset="1" stop-color="#E36001"/>
</linearGradient>
<clipPath id="clip0_43_12">
<rect width="34" height="38" fill="white"/>
</clipPath>
</defs>
</svg>
