<svg width="87" height="40" viewBox="0 0 87 40" fill="none" xmlns="http://www.w3.org/2000/svg">
<path d="M81.3157 31.3205C81.3157 35.3028 78.0575 38.5611 74.0752 38.5611H13.2176C9.23531 38.5611 5.97705 35.3028 5.97705 31.3205V8.26154C5.97705 4.27925 9.23531 1.021 13.2176 1.021H74.0752C78.0575 1.021 81.3157 4.27925 81.3157 8.26154V31.3205Z" fill="url(#paint0_linear_43_25)"/>
<path d="M68.5849 19.2984C71.7657 20.4112 73.3554 22.3179 73.3554 25.0155C73.3554 26.7912 72.6961 28.2005 71.3804 29.2429C70.0661 30.286 68.1912 30.9333 65.7507 30.9333C63.3102 30.9333 61.0528 30.2262 58.9736 29.0654C58.9961 28.4498 59.1588 27.7744 59.4575 27.0412C59.7562 26.3081 60.1097 25.7256 60.5147 25.3001C62.4256 26.2932 64.0885 26.7905 65.5 26.7905C66.1671 26.7905 66.6832 26.6786 67.0425 26.4532C67.4024 26.2285 67.5813 25.927 67.5813 25.5482C67.5813 24.8361 67.0298 24.3035 65.9304 23.9486L63.9555 23.2027C60.9677 22.1138 59.4738 20.3396 59.4738 17.8751C59.4738 16.0755 60.1013 14.6492 61.3565 13.5941C62.6116 12.5405 64.3034 11.6332 66.4305 11.6332C67.4828 11.6332 68.6414 11.7812 69.9092 12.077C71.1756 12.3736 72.2159 13.104 73.0287 13.5053C73.0766 14.1688 72.9435 14.8971 72.6344 15.6901C72.323 16.4839 71.9413 17.0459 71.4856 17.3777C69.4762 16.4776 67.8041 16.0275 66.4644 16.0275C65.9848 16.0275 65.6235 16.1339 65.3699 16.348C65.1191 16.5615 64.9958 16.8332 64.9958 17.165C64.9958 17.7334 65.4494 18.1828 66.3587 18.5145L68.5849 19.2984Z" fill="#F6F6F6"/>
<path d="M52.698 19.2984C55.8787 20.4112 57.4677 22.3179 57.4677 25.0155C57.4677 26.7912 56.8085 28.2005 55.4949 29.2429C54.1793 30.286 52.3036 30.9333 49.8638 30.9333C47.4255 30.9333 45.1652 30.2262 43.0867 29.0654C43.1092 28.4498 43.2719 27.7744 43.5713 27.0412C43.8699 26.3081 44.222 25.7256 44.6285 25.3001C46.5415 26.2932 48.2037 26.7905 49.6145 26.7905C50.2822 26.7905 50.7984 26.6786 51.1563 26.4532C51.5148 26.2285 51.6951 25.927 51.6951 25.5482C51.6951 24.8361 51.1436 24.3035 50.0442 23.9486L48.0706 23.2027C45.0821 22.1138 43.5876 20.3396 43.5876 17.8751C43.5876 16.0755 44.2151 14.6492 45.4716 13.5941C46.7261 12.5405 48.4171 11.6332 50.5442 11.6332C51.5958 11.6332 52.7572 11.7812 54.0222 12.077C55.29 12.3736 56.329 13.104 57.1424 13.5053C57.1903 14.1688 57.0572 14.8971 56.748 15.6901C56.4374 16.4839 56.055 17.0459 55.6 17.3777C53.5898 16.4776 51.9177 16.0275 50.5774 16.0275C50.0985 16.0275 49.7358 16.1339 49.4836 16.348C49.2335 16.5615 49.1089 16.8332 49.1089 17.165C49.1089 17.7334 49.5631 18.1828 50.4725 18.5145L52.698 19.2984Z" fill="#F6F6F6"/>
<path d="M41.1124 19.5491C41.1124 18.4602 40.9391 17.4537 40.5926 16.5296C40.2468 15.6055 39.7502 14.8131 39.105 14.1497C38.4591 13.4862 37.6766 12.9656 36.7568 12.5867C35.8354 12.2085 34.8015 11.6379 33.6541 11.6379C32.2912 11.6379 31.1017 12.255 30.086 12.729C29.0704 13.2023 28.2336 13.8531 27.5764 14.6821C26.9178 15.5117 26.4277 16.488 26.1051 17.6128C25.7825 18.7377 25.6212 19.9631 25.6212 21.2887C25.6212 22.6608 25.7522 23.9299 26.0156 25.0899C26.2783 26.2485 26.7269 27.2543 27.3602 28.1081C27.9941 28.9603 28.8188 29.6231 29.8352 30.0957C30.8515 30.569 32.113 30.9325 33.6189 30.9325C36.3918 30.9325 38.7344 30.1295 40.6474 28.7807C40.4579 27.4086 39.9691 26.3176 39.1838 25.5125C38.2069 25.8794 37.3426 26.1422 36.5932 26.3035C35.8432 26.4628 35.1817 26.5431 34.6106 26.5431C33.4674 26.5431 32.6448 26.2522 32.1455 25.6648C31.6467 25.0795 31.3731 24.3872 31.3246 23.3356H40.6488C40.9568 22.3397 41.1124 20.9937 41.1124 19.5491ZM31.2891 19.795C31.3601 18.5864 31.5807 17.2932 31.9477 16.7608C32.3154 16.2276 32.8781 15.9613 33.638 15.9613C34.4206 15.9613 35.008 16.2445 35.3988 16.8129C35.7905 17.3813 35.9862 18.5266 35.9862 19.4027L35.9869 19.795H31.2891Z" fill="#F6F6F6"/>
<path d="M83.1929 22.158C82.1793 23.0433 81.5912 24.3174 81.5912 25.9832V32.187C81.5912 34.2493 80.9572 35.8178 79.5254 36.8962C78.0948 37.9731 76.427 38.5062 74.5232 38.5576L73.3949 38.5491V35.4578C74.3894 35.1676 74.7979 34.8303 75.1937 34.4471C75.9108 33.7992 76.4601 32.7448 76.4601 31.2805V26.272C76.4869 24.5696 76.6179 23.2356 77.2377 22.2721C77.8597 21.3085 79.0703 20.4662 80.8699 19.7386C78.8823 18.8286 77.5475 17.6403 76.8671 16.1746C76.4671 15.3041 76.4593 14.1293 76.4593 12.6515V8.05858C76.4593 6.54142 75.9628 5.47866 75.3521 4.87216C74.9549 4.47631 74.4928 4.16008 73.3934 3.92136V1.01946C74.738 1.03354 75.4169 1.01813 76.2001 1.01946C77.406 1.00962 78.416 1.66891 79.295 2.35557C80.2522 3.10848 80.9325 4.12634 81.3312 5.40744C81.558 6.14769 81.5904 6.85489 81.5904 7.52818V12.8403C81.5904 14.7166 82.1447 16.1112 83.0921 17.0219C83.626 17.5502 84.3796 18.0333 85.6735 18.4693V20.869C84.5269 21.186 83.8071 21.6156 83.1929 22.158Z" fill="#F6F6F6" stroke="#404040" stroke-miterlimit="10"/>
<path d="M11.8699 1.02108V1.02524C11.4846 1.02311 11.1359 1.0217 10.8571 1.02241C9.65054 1.01187 8.64057 1.67115 7.76232 2.35852C6.80373 3.11143 5.98323 4.09403 5.72617 5.41039C5.57966 6.18235 5.61067 6.85704 5.61067 7.53112V12.8432C5.61067 14.7189 4.91267 16.1127 3.96604 17.0249C3.4328 17.5531 2.29457 18.0355 1 18.4715V20.8711C2.14735 21.1874 3.25183 21.6156 3.86453 22.1594C4.87875 23.0454 5.60978 24.3203 5.60978 25.9859V32.1897C5.60978 34.2506 6.10148 35.8206 7.53193 36.8974C8.96246 37.9736 10.6296 38.5089 12.5334 38.561L13.8075 38.5525V35.4591C12.8137 35.1682 12.2616 34.8308 11.8636 34.449C11.1472 33.8003 10.7416 32.7466 10.7416 31.2831V26.2739C10.7141 24.5702 10.4394 23.2375 9.81892 22.2733C9.19843 21.3111 7.98766 20.4673 6.18598 19.7405C8.17438 18.8298 9.50837 17.6422 10.1887 16.1772C10.5896 15.306 10.7416 14.1312 10.7416 12.6535V8.06056C10.7416 6.54339 11.0937 5.48063 11.7038 4.87352C12.0348 4.54392 12.6236 4.27269 13.4414 4.05302L14.7346 4.06205C14.7346 2.94898 14.7346 2.25223 14.7346 1.02081H11.87V1.02108H11.8699Z" fill="#F6F6F6" stroke="#404040" stroke-miterlimit="10"/>
<path d="M23.7922 26.1896H22.8238C21.7709 26.1896 21.3743 25.636 21.3743 24.5239V4.08491C21.3743 2.85589 21.0194 1.99305 20.5649 1.49586C20.1106 0.999999 19.3218 1.00496 18.1984 1.00496H16.0114L15.7537 1V1.02108L15.7515 4.06312V25.5128C15.7515 27.2187 16.1347 28.4668 16.8164 29.2613C17.4989 30.0543 18.6519 30.4502 20.2775 30.4502C21.4017 30.4502 22.6807 30.3318 24.1147 30.0944C24.1866 29.8549 24.2225 29.3422 24.2225 28.5555C24.2225 27.7666 24.0789 26.9799 23.7922 26.1896Z" fill="#F6F6F6"/>
<defs>
<linearGradient id="paint0_linear_43_25" x1="43.6464" y1="1.02099" x2="43.6464" y2="38.5611" gradientUnits="userSpaceOnUse">
<stop offset="0.1497" stop-color="#2A4F84"/>
<stop offset="0.3884" stop-color="#294E82"/>
<stop offset="1" stop-color="#172E4E"/>
</linearGradient>
</defs>
</svg>
