<svg width="51" height="38" viewBox="0 0 51 38" fill="none" xmlns="http://www.w3.org/2000/svg">
<path d="M43.6293 21.8436C41.8617 21.8529 40.3254 22.2786 39.039 22.9079C38.567 21.9732 38.095 21.1403 38.0117 20.5295C37.9191 19.8169 37.8081 19.3819 37.9191 18.5304C38.0302 17.679 38.5299 16.4666 38.5207 16.3741C38.5114 16.2815 38.4096 15.8466 37.3916 15.8373C36.3736 15.8281 35.4944 16.0317 35.3926 16.3001C35.2908 16.5684 35.0964 17.1793 34.9669 17.8086C34.791 18.7341 32.9308 22.038 31.8665 23.7686C31.5241 23.093 31.228 22.5007 31.1632 22.0287C31.0706 21.3161 30.9596 20.8812 31.0706 20.0297C31.1817 19.1783 31.6814 17.9659 31.6722 17.8734C31.6629 17.7808 31.5611 17.3458 30.5431 17.3366C29.5251 17.3273 28.6459 17.5309 28.5441 17.7993C28.4423 18.0677 28.3312 18.697 28.1184 19.3078C27.9055 19.9187 25.4345 25.4345 24.7866 26.8597C24.4535 27.5908 24.1666 28.1739 23.963 28.5719C23.963 28.5719 23.9537 28.5996 23.926 28.6459C23.7501 28.9883 23.6483 29.1734 23.6483 29.1734C23.6483 29.1734 23.6483 29.1734 23.6483 29.1827C23.5095 29.4325 23.3614 29.6639 23.2874 29.6639C23.2318 29.6639 23.13 28.9976 23.3059 28.0906C23.6761 26.1749 24.5553 23.1948 24.546 23.093C24.546 23.0375 24.7126 22.5192 23.9722 22.2509C23.2504 21.9825 22.9912 22.4267 22.9264 22.4267C22.8617 22.4267 22.8154 22.584 22.8154 22.584C22.8154 22.584 23.6205 19.2338 21.2791 19.2338C19.8168 19.2338 17.7993 20.8349 16.7998 22.2786C16.1705 22.621 14.8285 23.3522 13.394 24.1388C12.848 24.4442 12.2835 24.7496 11.756 25.0365C11.7189 24.9995 11.6819 24.9532 11.6449 24.9162C8.81295 21.8899 3.57476 19.7521 3.79687 15.6892C3.88017 14.2085 4.38918 10.3215 13.8568 5.60156C21.6493 1.76084 27.85 2.82514 28.9235 5.1851C30.4598 8.55383 25.6011 14.81 17.5494 15.717C14.4769 16.0594 12.8665 14.8748 12.4593 14.4306C12.0336 13.9679 11.9688 13.9401 11.8115 14.0326C11.5524 14.1715 11.7189 14.5879 11.8115 14.8285C12.0521 15.4579 13.0424 16.5684 14.7175 17.1145C16.1982 17.5957 19.7983 17.8641 24.1573 16.1797C29.0346 14.2918 32.8475 9.04433 31.7277 4.64833C30.6079 0.187536 23.2041 -1.28397 16.1982 1.20556C12.0336 2.68632 7.51728 5.01852 4.26887 8.05407C0.409635 11.6634 -0.201178 14.8008 0.0487003 16.115C0.946411 20.7794 7.37846 23.8149 9.95128 26.0638C9.82172 26.1379 9.7014 26.2026 9.5996 26.2582C8.31319 26.8967 3.40817 29.4603 2.18655 32.1719C0.798335 35.2445 2.40866 37.4472 3.47296 37.7433C6.7769 38.6595 10.1734 37.0122 11.9966 34.2913C13.8198 31.5704 13.5977 28.0351 12.7555 26.4155C12.7462 26.397 12.737 26.3785 12.7185 26.36C13.0516 26.1656 13.394 25.962 13.7272 25.7677C14.3843 25.379 15.0321 25.018 15.5874 24.7219C15.2728 25.5826 15.0414 26.6098 14.9303 28.0906C14.7915 29.8305 15.5041 32.0887 16.4389 32.9771C16.8553 33.3658 17.3458 33.3751 17.6605 33.3751C18.7525 33.3751 19.243 32.4681 19.7891 31.3946C20.4554 30.0804 21.057 28.5533 21.057 28.5533C21.057 28.5533 20.3073 32.681 22.3434 32.681C23.0838 32.681 23.8334 31.7185 24.1666 31.228C24.1666 31.2372 24.1666 31.2372 24.1666 31.2372C24.1666 31.2372 24.1851 31.2095 24.2221 31.1447C24.2961 31.0244 24.3424 30.9503 24.3424 30.9503C24.3424 30.9503 24.3424 30.9411 24.3424 30.9318C24.6386 30.4135 25.3049 29.2382 26.2952 27.2854C27.5723 24.7681 28.8032 21.6215 28.8032 21.6215C28.8032 21.6215 28.9143 22.3897 29.2937 23.6668C29.5158 24.4165 29.9786 25.2401 30.3487 26.036C30.0526 26.4525 29.8675 26.6839 29.8675 26.6839C29.8675 26.6839 29.8675 26.6839 29.8768 26.6931C29.6361 27.0078 29.377 27.3502 29.0901 27.6834C28.0813 28.8865 26.8782 30.2655 26.7116 30.6634C26.5173 31.1354 26.5636 31.4778 26.9337 31.7555C27.2021 31.9591 27.6834 31.9869 28.1739 31.9591C29.0808 31.8943 29.7194 31.6722 30.0341 31.5334C30.5246 31.3575 31.0984 31.0891 31.6352 30.6912C32.6254 29.9601 33.227 28.9143 33.1714 27.5353C33.1437 26.7764 32.8938 26.0175 32.5884 25.3049C32.6809 25.1754 32.7642 25.0458 32.8568 24.9162C34.4208 22.6303 35.6332 20.1223 35.6332 20.1223C35.6332 20.1223 35.7443 20.8904 36.1237 22.1676C36.3088 22.8154 36.6883 23.5188 37.0214 24.2036C35.5499 25.3975 34.643 26.7857 34.319 27.6927C33.736 29.377 34.1895 30.1359 35.0502 30.3117C35.4389 30.395 35.9941 30.2099 36.4014 30.0341C36.9196 29.8675 37.5304 29.5806 38.1135 29.1549C39.1037 28.4238 40.057 27.4058 40.0015 26.0268C39.9737 25.3975 39.8071 24.7774 39.5757 24.1758C40.8251 23.6576 42.4355 23.3707 44.49 23.6113C48.8953 24.1296 49.7652 26.8782 49.5986 28.0351C49.432 29.1919 48.5066 29.8212 48.2012 30.0156C47.8958 30.2099 47.794 30.2747 47.8217 30.4135C47.8587 30.6172 48.0068 30.6079 48.2659 30.5709C48.6269 30.5061 50.5796 29.6361 50.6629 27.5076C50.8017 24.7867 48.2104 21.8159 43.6293 21.8436ZM9.64588 33.301C8.18362 34.8928 6.14758 35.4944 5.26838 34.9854C4.32439 34.4394 4.69458 32.0887 6.49001 30.4043C7.58207 29.377 8.98879 28.4238 9.92352 27.8407C10.1364 27.7112 10.451 27.5261 10.8305 27.2947C10.8953 27.2577 10.9323 27.2392 10.9323 27.2392C11.0063 27.1929 11.0804 27.1466 11.1544 27.1003C11.8115 29.5066 11.1822 31.6259 9.64588 33.301ZM20.2888 26.0638C19.7798 27.304 18.7155 30.4783 18.0677 30.3025C17.5124 30.1544 17.17 27.7482 17.9566 25.3697C18.3546 24.1758 19.1968 22.7506 19.6873 22.1953C20.4832 21.3069 21.3624 21.0107 21.5752 21.3717C21.8436 21.8436 20.6035 25.2864 20.2888 26.0638ZM29.0716 30.2655C28.8587 30.3765 28.6551 30.4506 28.5626 30.395C28.4978 30.358 28.6551 30.2099 28.6551 30.2099C28.6551 30.2099 29.7564 29.0253 30.1914 28.4886C30.4413 28.1739 30.7374 27.8037 31.0521 27.3872C31.0521 27.4243 31.0521 27.4705 31.0521 27.5076C31.0521 28.9235 29.6824 29.8768 29.0716 30.2655ZM35.8461 28.7199C35.6887 28.6089 35.7165 28.2387 36.244 27.0818C36.4476 26.6284 36.9289 25.8695 37.7525 25.1383C37.8451 25.4345 37.9099 25.7214 37.9006 25.9898C37.8914 27.7759 36.6142 28.4423 35.8461 28.7199Z" fill="#CD6799"/>
</svg>
