<svg width="30" height="30" viewBox="0 0 30 30" fill="none" xmlns="http://www.w3.org/2000/svg">
<g clip-path="url(#clip0_43_97)">
<path d="M14.2969 0.0140613C14.2383 0.0187488 14.0344 0.0328113 13.8398 0.0468738C10.8258 0.267186 7.87969 1.45078 5.50781 3.39609C1.38047 6.78281 -0.63047 12.0281 0.178124 17.2969C0.810937 21.4102 3.16641 25.1062 6.64687 27.45C9.11016 29.1094 12.0305 30 15 30C17.9695 30 20.8898 29.1094 23.3531 27.45C26.775 25.1484 29.1094 21.5391 29.7891 17.5008C30.7734 11.6625 28.2492 5.82891 23.3086 2.51953C21.2227 1.12266 18.8766 0.297655 16.3125 0.0562488C15.9539 0.0234363 14.5477 -0.00703244 14.2969 0.0140613ZM16.2328 1.27734C17.9414 1.43672 19.4883 1.86562 20.9906 2.59922C22.5563 3.36328 23.7867 4.26797 25.0195 5.55703C26.393 6.99375 27.4922 8.84766 28.118 10.7812C28.9125 13.2422 28.9898 15.9516 28.3359 18.457C27.8156 20.4516 26.8945 22.2328 25.5328 23.8711C25.1953 24.2789 24.2578 25.2117 23.8359 25.5633C21.6258 27.3961 19.0852 28.4484 16.207 28.725C15.6234 28.7812 14.3766 28.7812 13.793 28.725C10.9125 28.4484 8.37187 27.3961 6.16406 25.5633C5.72344 25.1977 4.79766 24.2695 4.43672 23.8359C3.55312 22.7695 2.87344 21.6633 2.33672 20.4211C1.19062 17.775 0.918749 14.7539 1.575 11.9062C2.30156 8.74687 4.14609 5.92266 6.75937 3.96562C8.83828 2.40937 11.3648 1.45547 13.9102 1.26562C14.4797 1.22344 14.5125 1.22344 15.1992 1.23281C15.5602 1.2375 16.0266 1.25625 16.2328 1.27734Z" fill="white"/>
<path d="M10.2188 6.81326C9.82032 6.84138 9.53439 6.97029 9.11251 7.31013C9.01876 7.38513 8.85704 7.53513 8.75626 7.6406L8.57111 7.83279L10.5539 9.8156C12.5274 11.789 12.5367 11.7984 12.5977 11.7656C12.6938 11.714 12.9328 11.489 13.0102 11.3765C13.2305 11.0554 13.2984 10.814 13.2984 10.3593C13.2961 9.97029 13.2539 9.73826 13.0992 9.28357C12.9797 8.93435 12.6586 8.2781 12.4664 7.99216C12.3 7.74372 12.0352 7.45544 11.8289 7.29607C11.6695 7.17185 11.3555 7.0031 11.1727 6.93982C10.9102 6.84841 10.4883 6.79216 10.2188 6.81326Z" fill="white"/>
<path d="M8.21954 8.31328C8.18907 8.3625 8.13751 8.44453 8.10236 8.49844L8.04376 8.59453L9.95157 10.5023L11.8594 12.4102L12.0164 12.2508L12.1758 12.0937L10.2422 10.1602C9.17814 9.09609 8.30157 8.22656 8.2922 8.22656C8.28282 8.22656 8.25001 8.26641 8.21954 8.31328Z" fill="white"/>
<path d="M7.79763 9.06326C7.49529 9.70779 7.2281 10.5351 7.12263 11.1562C7.08045 11.407 7.08748 12.0726 7.13435 12.3867C7.32888 13.6429 7.93592 15.0164 8.99529 16.582C9.73357 17.6765 10.6172 18.7476 11.2148 19.2773C13.3054 21.1242 15.5109 22.4039 17.1914 22.7461C17.7023 22.8492 18.3304 22.882 18.7429 22.8258C19.0054 22.7906 19.6195 22.6312 20.0156 22.4953C20.3906 22.3664 21.0937 22.064 21.0937 22.0312C21.0937 22.0242 20.2429 21.1687 19.2 20.1258L17.3086 18.2344L17.2195 18.2953C17.1094 18.3703 16.8609 18.4734 16.6875 18.5179C16.5023 18.5648 16.0594 18.5578 15.8578 18.5062C15.5062 18.4125 15.1945 18.2531 14.8242 17.9742C13.9265 17.3015 12.2062 15.525 11.7703 14.8242C11.3273 14.1094 11.2711 13.4226 11.6039 12.7992L11.6976 12.6234L9.80154 10.7273L7.90779 8.83357L7.79763 9.06326Z" fill="white"/>
<path d="M19.2141 16.6641C18.8016 16.7391 18.4641 16.9477 18.218 17.2805L18.1336 17.3953L20.1117 19.3734C21.1992 20.4609 22.0992 21.3516 22.111 21.3516C22.1578 21.3516 22.6406 20.8312 22.7719 20.6367C23.032 20.257 23.0953 20.0859 23.1211 19.7062C23.1633 19.1437 22.9664 18.5273 22.6031 18.075C22.3102 17.7094 21.9375 17.4375 21.3164 17.1328C20.6297 16.7977 20.1727 16.6664 19.6524 16.6523C19.4719 16.6477 19.275 16.6523 19.2141 16.6641Z" fill="white"/>
<path d="M17.6883 17.925L17.5312 18.082L19.4391 19.9898L21.3469 21.8976L21.525 21.7875C21.6211 21.7266 21.7078 21.668 21.7125 21.6586C21.7195 21.6492 20.8523 20.7703 19.7859 19.7039L17.8477 17.7656L17.6883 17.925Z" fill="white"/>
</g>
<defs>
<clipPath id="clip0_43_97">
<rect width="30" height="30" fill="white"/>
</clipPath>
</defs>
</svg>
